imdb : http://www.imdb.com/title/tt0300471/
Plot: When a Chinese rebel murders Chon's estranged father and escapes to England, Chon and Roy make their way to London with revenge on their minds.
Tagline: A Royal Kick In The Arse
Total Size : 1.35 GB

[code]General
Complete name : Shanghai Knights 2003 DVDRip [H.264 - MP4 - AAC] ~ Mindbreaker
Format : H.264/AAC/MP4 - Anamophic
Source : DVD (NmG)
File size : 1.35 GiB
Duration : 1h 50mn
Overall bit rate : 1 763 Kbps


Video
ID : 1
Format : AVC
Format/Info : Advanced Video Codec
Format profile : Main@L3.0
Duration : 1h 50mn
Bit rate : 1 600 Kbps
Width : 720 pixels
Height : 434 pixels
Display aspect ratio : 2.35:1
Frame rate : 25.000 fps
Bits/(Pixel*Frame) : 0.205
Stream size : 1.23 GiB (91%)
Writing library : x264 core 79

Audio
ID : 2
Format : AAC
Format/Info : Advanced Audio Codec
Format profile : LC
Duration : 1h 50mn
Bit rate : 160 Kbps
Channel(s) : 2 channels
Sampling rate : 48.0 KHz
Stream size : 125 MiB (9%)
Language : English

Subtitle
Format : SubRip
Language : English
Source : DVD
Note : Hardcoded English subtitles for non-english speaking parts 
http://genesis.1337x.org:1337/announce
http://tracker.openbittorrent.com/announce
http://trackedbyet.info:420/announce

